# xmcd
#
# Track frame offsets:
# 150
# 12662
# 28070
# 55920
# 71921
# 87141
# 101832
# 122598
# 137545
# 169008
# 180744
# 195969
# 214065
# 225746
#
# Disc length: 3366 seconds
#
# Revision: 1
# Processed by: cddbd v1.5.1PL0 Copyright (c) Steve Scherf et al.
# Submitted via: CedeCatalogueitor 2.6.0.6 http://personales.ya.com/cdcatalogueitor
#
DISCID=c00d240e
DTITLE=Kiko Veneno Y Pata Negra - Rarezas
DYEAR=2005
DGENRE=
TTITLE0=Un Catalán Fino
TTITLE1=Canción Antinacionalista Zamorana
TTITLE2=Aparta El Corazón De Las Mangueras
TTITLE3=Salve Madre
TTITLE4=San José De Arimatea
TTITLE5=Sevilla Tiene Dos Partes
TTITLE6=Variaciones Sobre "Vooodo Chile" De Hendrix
TTITLE7=Blues Arrastrao
TTITLE8=Bulerías A Dos Pt. 1
TTITLE9=Instrumental
TTITLE10=Bulerías
TTITLE11=Rock Del Cayetano
TTITLE12=El Ritmo De La Cabra
TTITLE13=Ratitas Divinas
EXTD=
EXTT0=
EXTT1=
EXTT2=
EXTT3=
EXTT4=
EXTT5=
EXTT6=
EXTT7=
EXTT8=
EXTT9=
EXTT10=
EXTT11=
EXTT12=
EXTT13=
PLAYORDER=
